<svg width="21" height="22" viewBox="0 0 21 22" fill="none" xmlns="http://www.w3.org/2000/svg">
<path d="M19.4924 16.332L17.7643 14.6041V8.98408C17.7674 8.50088 17.6618 8.02293 17.4557 7.58583C17.4461 7.56024 17.435 7.53525 17.4225 7.51083C17.2606 7.14013 17.0317 6.80243 16.7473 6.51493L12.1823 1.95088H12.1821C11.8895 1.65185 11.5407 1.41398 11.1553 1.25088L11.1532 1.2501C11.1377 1.24326 11.1215 1.23975 11.1055 1.23408H11.1057C10.6682 1.03721 10.1942 0.934862 9.71431 0.934082H4.39331C3.46536 0.935059 2.57571 1.3042 1.91946 1.96023C1.26321 2.61648 0.894261 3.50613 0.893311 4.43408V17.5661C0.894287 18.494 1.26323 19.3837 1.91946 20.0399C2.57571 20.696 3.46536 21.0651 4.39331 21.0661H14.2643C15.1049 21.0643 15.9167 20.7596 16.5507 20.2077C16.9378 20.4167 17.3829 20.4934 17.8177 20.426C18.2524 20.3587 18.6534 20.1512 18.9595 19.8348L19.4927 19.3016L19.4925 19.3018C19.886 18.9077 20.1069 18.3737 20.1069 17.8169C20.1069 17.2602 19.886 16.7263 19.4925 16.3321L19.4924 16.332ZM15.3747 7.12203H13.6667C13.1098 7.12144 12.5761 6.89996 12.1823 6.50623C11.7885 6.1125 11.5672 5.57868 11.5667 5.02203V3.31558L15.3747 7.12203ZM4.39366 19.666C3.83681 19.6654 3.30306 19.444 2.90926 19.0502C2.51571 18.6567 2.29421 18.1229 2.29366 17.566V4.43403C2.29425 3.87718 2.51573 3.34343 2.90926 2.94983C3.30301 2.55608 3.83681 2.33458 4.39366 2.33403H9.71467C9.86701 2.33403 10.019 2.35161 10.1674 2.38618V5.02213C10.1684 5.95008 10.5373 6.83973 11.1936 7.49598C11.8496 8.15203 12.7395 8.52118 13.6674 8.52213H16.3104C16.3467 8.6733 16.365 8.82838 16.365 8.98405V13.2041L13.1943 10.034C12.9133 9.75241 12.5574 9.5569 12.1689 9.47075L9.97459 8.97934C9.60037 8.89653 9.20994 9.01039 8.93904 9.28149C8.66814 9.55239 8.55447 9.94299 8.63748 10.317L9.1283 12.5135C9.21599 12.9016 9.4117 13.2569 9.69295 13.5383L15.448 19.2938V19.2936C15.0999 19.5339 14.6878 19.6636 14.2649 19.6659L4.39366 19.666ZM18.5032 18.3119L17.97 18.8451H17.9698C17.6959 19.1186 17.2524 19.1186 16.9786 18.8451L10.6811 12.5476H10.6813C10.5879 12.4535 10.5229 12.3351 10.494 12.2058L10.1002 10.4418L11.8643 10.8369H11.8641C11.9936 10.8652 12.1123 10.9303 12.2059 11.0242L18.5034 17.3217V17.3215C18.6348 17.453 18.7084 17.6311 18.7084 17.8168C18.7084 18.0026 18.6344 18.1805 18.5032 18.3117V18.3119Z" fill="black"/>
</svg>
