<svg width="25" height="18" viewBox="0 0 25 18" fill="none" xmlns="http://www.w3.org/2000/svg">
<path d="M8.37452 13.108C8.59249 13.318 8.93742 13.318 9.15537 13.108L12.8523 9.51015C12.9585 9.40566 13.1021 9.34784 13.2511 9.34941C13.4001 9.35116 13.5423 9.4121 13.6462 9.51894C13.7501 9.62577 13.8072 9.76972 13.8048 9.91855C13.8023 10.0676 13.7405 10.2096 13.6333 10.3129L11.1902 12.6906L13.6312 15.0713H13.631C13.738 15.1746 13.7995 15.3164 13.8017 15.4652C13.804 15.6141 13.747 15.7576 13.6431 15.8643C13.5392 15.9707 13.3972 16.0316 13.2484 16.0332C13.0995 16.035 12.9564 15.9773 12.8501 15.873L10.3878 13.4715L9.93646 13.9108C9.62396 14.2182 9.20326 14.3904 8.76496 14.3904C8.32666 14.3904 7.90596 14.2182 7.59366 13.9108L7.14229 13.4715L4.67979 15.8728C4.57354 15.9771 4.43038 16.035 4.28155 16.0332C4.13272 16.0316 3.99073 15.9707 3.88683 15.8641C3.78292 15.7576 3.72589 15.6141 3.72823 15.4652C3.73038 15.3164 3.7919 15.1746 3.89894 15.0713L6.33994 12.6906L3.89679 10.3129H3.89659C3.78917 10.2096 3.72726 10.0676 3.72472 9.91854C3.72218 9.76932 3.77921 9.62538 3.88312 9.51854C3.98722 9.41151 4.12941 9.35057 4.27863 9.34901C4.42785 9.34745 4.5714 9.40526 4.67765 9.50995L8.37452 13.108ZM21.46 9.34765H17.1266C16.8172 9.34765 16.5667 9.59843 16.5667 9.9076C16.5667 10.217 16.8173 10.4675 17.1266 10.4675H21.46C21.9055 10.4672 22.3325 10.29 22.6475 9.97497C22.9624 9.66012 23.1395 9.23297 23.1401 8.78767V1.83467C23.1395 1.38936 22.9624 0.962415 22.6475 0.647365C22.3325 0.332325 21.9055 0.155175 21.46 0.154785H11.0095C10.564 0.155176 10.1371 0.332325 9.82202 0.647365C9.50697 0.962405 9.32983 1.38937 9.32944 1.83467V8.09367L9.32963 8.09425L9.32944 8.09484C9.32924 8.24347 9.38823 8.38585 9.4933 8.49093C9.59838 8.59601 9.74096 8.65499 9.8894 8.6548H11.7486L11.7597 8.65695L11.7711 8.6548H13.9898C14.299 8.65519 14.5494 8.90577 14.5498 9.21475V16.1652C14.5494 16.4742 14.299 16.7248 13.9898 16.7252H3.54031C3.23113 16.7248 2.98076 16.4742 2.98036 16.1652V9.21475C2.98075 8.90576 3.23114 8.6552 3.54031 8.6548H7.85516C8.16434 8.6548 8.41511 8.40402 8.41511 8.09485C8.41511 7.78547 8.16433 7.5349 7.85516 7.5349H3.54031C3.0948 7.53529 2.66786 7.71244 2.35281 8.02748C2.03796 8.34232 1.86082 8.76948 1.86023 9.21478V16.1653C1.86081 16.6106 2.03796 17.0377 2.35281 17.3526C2.66785 17.6676 3.09481 17.8448 3.54031 17.8452H13.9898C14.4353 17.8448 14.8623 17.6676 15.1773 17.3526C15.4922 17.0377 15.6693 16.6106 15.6699 16.1653V9.21478C15.6693 8.76947 15.4922 8.34233 15.1773 8.02748C14.8623 7.71244 14.4353 7.53529 13.9898 7.5349H13.1377L14.6129 6.09625L15.064 6.53531H15.0638C15.3759 6.84312 15.7968 7.01578 16.2351 7.01597C16.6736 7.01597 17.0945 6.84351 17.4068 6.5357L17.8582 6.09644L20.3205 8.49799C20.4267 8.60228 20.5699 8.6599 20.7187 8.65834C20.8676 8.65658 21.0096 8.59584 21.1135 8.4892C21.2174 8.38256 21.2744 8.239 21.2721 8.09017C21.2699 7.94134 21.2084 7.79955 21.1014 7.69623L18.6606 5.31558L21.1037 2.93783C21.2111 2.83451 21.273 2.69252 21.2756 2.54349C21.2781 2.39427 21.2211 2.25033 21.1172 2.14349C21.0131 2.03646 20.8709 1.97552 20.7217 1.97396C20.5725 1.9724 20.4289 2.03041 20.3226 2.1351L17.458 4.9234L17.457 4.92398L17.4566 4.92457L16.6258 5.73337V5.73357C16.4074 5.94275 16.0629 5.94255 15.8449 5.73298L12.148 2.13513C12.0418 2.03064 11.8982 1.97282 11.7492 1.97439C11.6002 1.97615 11.458 2.03708 11.3541 2.14392C11.2502 2.25075 11.1931 2.3947 11.1955 2.54353C11.198 2.69255 11.2597 2.83454 11.367 2.93786L13.8103 5.31541L11.5345 7.53496H10.4492L10.4494 1.83496C10.4498 1.52598 10.7001 1.27541 11.0093 1.27501H21.4603C21.7695 1.2754 22.0199 1.52599 22.0203 1.83496V8.78796C22.0199 9.09695 21.7695 9.34752 21.4603 9.34792L21.46 9.34765ZM21.0128 14.9121H17.13C16.8206 14.9121 16.57 15.1627 16.57 15.4721C16.57 15.7815 16.8206 16.032 17.13 16.032H21.0128C21.3219 16.032 21.5727 15.7815 21.5727 15.4721C21.5727 15.1627 21.3219 14.9121 21.0128 14.9121ZM23.7001 14.9121H22.7473C22.4381 14.9121 22.1874 15.1627 22.1874 15.4721C22.1874 15.7815 22.4381 16.032 22.7473 16.032H23.7001C24.0094 16.032 24.26 15.7815 24.26 15.4721C24.26 15.1627 24.0094 14.9121 23.7001 14.9121ZM22.4413 12.6902V12.6901C22.4413 12.5416 22.3823 12.399 22.2772 12.2942C22.1721 12.1891 22.0297 12.1301 21.8811 12.1301H18.6709C18.3618 12.1301 18.111 12.3809 18.111 12.69C18.111 12.9994 18.3618 13.2502 18.6709 13.2502H21.8811C22.0297 13.2502 22.1721 13.1912 22.2772 13.0861C22.3823 12.9811 22.4413 12.8387 22.4413 12.69V12.6902ZM5.94075 2.11625C5.94075 1.96781 5.88177 1.82523 5.77669 1.72015C5.67181 1.61527 5.52923 1.55628 5.38079 1.55628H1.29994C0.990565 1.55628 0.73999 1.80707 0.73999 2.11624C0.73999 2.42561 0.990575 2.67639 1.29994 2.67639H5.38079C5.52923 2.67639 5.67181 2.6174 5.77669 2.51233C5.88177 2.40725 5.94075 2.26487 5.94075 2.11623V2.11625ZM7.14175 2.6762H7.88435V2.67639C8.19373 2.67639 8.4443 2.42561 8.4443 2.11624C8.4443 1.80706 8.19372 1.55629 7.88435 1.55629H7.14175C6.83238 1.55629 6.5816 1.80707 6.5816 2.11624C6.5816 2.42562 6.83238 2.67639 7.14175 2.67639V2.6762ZM7.88435 3.934L3.166 3.93419C2.85663 3.93419 2.60585 4.18478 2.60585 4.49414C2.60585 4.80332 2.85663 5.05409 3.166 5.05409H7.88435C8.19373 5.05409 8.4443 4.80331 8.4443 4.49414C8.4443 4.18477 8.19372 3.93419 7.88435 3.93419V3.934Z" fill="black"/>
</svg>
