<svg width="316" height="257" viewBox="0 0 316 257" fill="none" xmlns="http://www.w3.org/2000/svg">
<path d="M107.391 237.582L110.357 244.02V252.708L100.707 254.854L96.6345 253.985L98.8963 244.174L96.6345 239.064L107.391 237.582ZM26.7634 240.596L26.9149 244.277L29.0252 251.278L22.2921 255.672L12.8916 252.248L15.7053 240.546H26.7634V240.596ZM278.198 222.2C278.198 224.039 273.422 237.173 273.422 237.173C278.751 244.992 280.862 249.438 279.705 250.562C278.299 251.942 271.914 248.108 260.504 239.013L268.043 221.688L278.198 222.2ZM209.282 230.479C209.181 234.516 209.08 238.553 209.03 242.641C199.53 251.635 199.48 253.781 199.932 254.445C200.988 256.03 207.874 253.526 212.098 251.329C215.114 249.744 217.325 248.057 218.833 246.78C218.329 240.904 217.828 234.976 217.325 229.098L209.282 230.479ZM140.769 51.8738C141.321 49.7792 140.517 49.0126 141.071 47.327C141.926 44.5667 145.293 42.9838 147.504 42.4722C154.039 41.0415 159.67 47.1216 160.674 48.1433C163.237 50.8522 164.444 53.7648 164.998 55.5548C169.321 57.3431 172.034 61.125 171.733 64.3952C171.28 68.687 165.349 73.0816 158.261 71.0897C154.14 70.833 150.067 70.6293 145.946 70.3744C144.941 70.987 143.332 71.805 141.321 71.805C134.536 71.7536 128.905 62.2989 130.665 59.2836C131.569 57.7521 133.681 58.9259 137.099 56.4224C138.154 55.7071 140.115 54.2765 140.769 51.8738Z" fill="#3B5672"/>
<path d="M231.801 70.2202V72.6724C228.484 72.6724 222.452 73.1328 216.169 76.6597C210.539 79.8273 207.623 83.7632 203.702 89.0253C198.374 96.2315 194.253 101.853 195.51 108.138C196.062 110.847 197.468 112.636 200.334 116.264C204.506 121.579 208.88 125.104 211.946 127.252C212.348 125.973 213.203 123.928 215.012 122.089C215.716 121.373 216.419 120.812 217.074 120.403C215.665 119.33 212.65 116.724 210.79 112.227C209.333 108.599 209.282 105.378 209.383 103.59C211.695 101.189 214.008 98.7351 216.32 96.3342C217.777 97.7134 222.25 102.211 223.407 109.672C224.211 115.037 222.903 119.33 222.101 121.373C226.976 123.316 234.315 125.564 243.412 125.922C249.998 126.177 255.628 125.412 259.9 124.44C259.247 121.681 258.695 118.206 258.695 114.22C258.695 112.023 258.844 110.029 259.046 108.241C260.102 106.554 261.258 104.204 262.062 101.24C263.519 95.8738 262.967 91.2243 262.464 88.6181C267.441 79.112 272.366 69.6076 277.342 60.0501L291.216 28.0101C290.462 27.9588 289.407 27.8561 288.251 27.2931C285.688 26.0678 284.631 23.7165 284.33 23.0012C278.147 33.6316 272.015 44.2603 265.832 54.889L253.919 67.2563L248.088 67.6653L244.318 63.2708C243.463 64.496 241.502 66.8987 238.186 68.5347C235.621 69.9139 233.209 70.1689 231.801 70.2202ZM149.012 129.807C156.502 130.216 162.334 128.376 165.549 127.098C166.857 133.332 168.163 139.516 169.471 145.75C175.352 158.576 181.234 171.404 187.114 184.179C188.019 187.143 189.276 191.539 190.18 197.006C191.639 205.54 191.538 211.826 191.589 216.374C191.688 223.324 192.191 233.237 194.101 245.707C190.129 245.707 185.254 245.401 179.825 244.277C175.001 243.305 170.877 241.925 167.51 240.596L171.431 187.348L147.805 152.036L138.407 198.182C139.763 214.023 141.071 229.864 142.427 245.759C140.466 246.883 136.596 248.671 131.419 248.875C125.135 249.132 120.46 246.883 118.449 245.759C116.842 234.004 118.148 225.215 119.656 219.287C121.014 213.869 122.471 211.314 124.432 204.467C127.146 195.013 128.101 186.99 128.503 181.675C127.799 175.951 127.347 169.41 127.498 162.307C127.85 147.539 130.665 135.07 133.681 125.718C136.646 127.2 142.025 129.398 149.012 129.807Z" fill="#E15554"/>
<path d="M222.101 121.374C219.435 130.01 216.872 139.26 214.56 149.124C210.79 165.425 208.377 180.654 206.869 194.553L207.17 230.428L219.235 228.74L223.306 195.116L237.331 152.7L268.445 182.339L267.34 221.638L281.063 222.354C282.369 216.784 284.178 208.505 285.688 198.283C287.547 185.661 287.145 182.646 286.794 180.909C285.838 175.85 283.626 171.914 272.366 158.27C268.245 153.263 262.816 146.926 256.281 139.617C257.539 134.559 258.794 129.55 260.051 124.492C255.527 125.462 249.193 126.382 241.704 125.871C233.309 125.258 226.675 123.213 222.101 121.374ZM55.5168 75.587C56.168 78.6004 57.3242 80.6454 58.5325 82.8427C59.9899 85.5517 61.597 87.6462 62.9551 89.2822C63.8605 87.9525 64.7641 86.4706 65.6695 84.7337C67.6806 80.6968 68.6347 76.9149 69.0874 73.951L68.9865 68.9934L75.3208 70.833L90.1485 57.8017L111.915 25.25C114.126 26.3761 116.337 27.4473 118.55 28.5716C116.59 35.8291 114.328 41.7551 112.467 46.1514C110.005 51.9252 108.044 56.5251 104.275 61.9926C100.857 67.0015 99.2983 67.9204 93.9686 74.769C90.2495 79.5725 87.4845 83.712 85.7765 86.3183C83.9657 92.1434 82.3081 98.4803 80.849 105.329C79.8443 109.978 79.0904 114.424 78.4375 118.666C75.5715 120.352 71.2987 122.397 65.8193 123.571C61.7484 124.44 58.1791 124.543 55.4141 124.44L45.6114 121.273L40.3844 102.466L36.4145 110.796L43.4523 120.506C41.9445 123.265 40.4366 125.973 38.9288 128.734C32.0912 125.973 28.1214 122.14 26.1103 119.892C23.3941 116.827 22.7917 114.884 22.541 113.709C21.7348 109.876 23.2949 106.605 24.2003 104.612C27.014 98.6343 30.1324 91.6831 33.8498 83.558C36.1638 80.9004 39.9334 77.2725 45.4111 74.36C48.9822 72.469 52.2974 71.3447 54.9631 70.7321C54.9631 71.9573 55.0624 73.5933 55.5168 75.587Z" fill="#EA980B"/>
<path d="M137.4 247.802C137.251 248.314 135.743 252.503 131.822 253.678C130.514 254.036 129.308 253.985 128.454 253.832C127.749 253.832 126.191 253.678 124.683 252.554C122.171 250.714 121.869 247.751 121.819 247.29C123.476 247.905 125.89 248.62 128.756 248.823C132.424 249.029 135.44 248.414 137.4 247.802ZM191.035 245.656C191.336 246.78 191.89 248.211 192.745 249.693C193.901 251.736 195.207 253.168 196.264 254.087C195.862 254.241 189.226 256.439 184.098 252.095C180.731 249.232 180.028 245.35 179.876 244.277C181.786 244.684 183.898 244.992 186.16 245.247C187.868 245.451 189.477 245.553 191.035 245.656ZM147.504 90.355C148.509 94.2892 149.616 97.9684 150.722 101.341C152.28 98.3774 153.839 95.0045 155.296 91.2244C157.004 86.7767 158.211 82.6389 159.116 78.9597L162.635 78.3967C162.233 76.7111 162.835 74.9211 164.193 73.8994C165.701 72.7238 167.812 72.7238 169.37 73.8994C168.667 78.0904 170.326 81.6669 172.889 82.6389C173.342 82.8425 174.599 83.2002 176.408 82.5362C176.86 83.0479 177.564 84.0695 177.916 85.5001C178.017 85.9605 178.52 87.9524 177.614 89.8947C176.658 91.9892 174.346 93.3189 171.783 93.4712C169.823 98.9404 167.862 104.408 165.853 109.824C161.227 110.438 156.101 110.899 150.571 111.102C145.645 111.256 141.071 111.205 136.849 110.948C136.095 105.787 135.341 100.626 134.587 95.4135C132.677 94.8009 129.811 93.6252 126.896 91.2739C124.533 89.383 122.975 87.3911 121.969 85.8578C121.918 85.3461 121.819 81.8723 124.331 79.675C126.092 78.1417 128.101 78.0904 129.257 78.039C132.626 77.885 135.139 79.5723 136.145 80.339L145.091 79.0606C145.695 82.5876 146.5 86.3695 147.504 90.355ZM60.2914 123.47C67.4789 123.264 73.0089 121.221 76.2753 119.688L100.002 184.742L110.357 237.122L93.8192 239.422L83.1616 196.7L62.1005 149.123L58.7836 149.991L41.1386 191.588L30.784 240.596H11.4814L28.5727 185.354L45.6117 121.272C48.8311 122.397 53.9571 123.673 60.2914 123.47ZM51.8468 55.043L49.5328 45.8432C49.7853 44.8747 51.0424 40.7334 55.2142 38.2811C60.5439 35.1118 66.0721 37.3622 66.6745 37.6172C71.501 37.0028 75.3211 38.7911 76.1255 41.3991C76.2753 41.909 76.4773 42.9306 75.9236 44.4126C76.93 45.6396 77.2312 47.2756 76.6775 48.6053C76.2753 49.5755 75.5719 50.0854 75.2201 50.2891C75.5719 49.2674 75.3211 48.0936 74.5672 47.4296C73.6618 46.5603 72.5057 46.7639 72.3542 46.7639C72.2044 49.4728 72.053 52.2314 71.9032 54.9403C69.0878 57.5979 66.3228 60.2555 63.5073 62.9131L52.047 56.5763L51.8468 55.043ZM244.369 63.3717C244.769 65.978 245.925 67.8194 247.182 67.9716C247.435 67.9716 247.736 67.9716 248.088 67.768C250.048 63.1168 251.958 58.4673 253.919 53.8674C251.756 51.0061 245.725 43.7504 235.32 41.0414C230.847 39.8658 226.875 39.9171 223.959 40.1739C222.501 41.0414 218.833 43.4423 216.721 48.1963C215.514 50.9548 215.263 53.4584 215.263 55.043C216.369 56.3709 217.525 57.752 218.631 59.0799C227.227 60.5618 235.823 61.9411 244.369 63.3717ZM174.296 242.896L172.034 246.269L168.968 244.583L169.873 241.465L174.296 242.896Z" fill="#456EB8"/>
<path d="M214.309 122.907C213.254 124.185 212.599 125.462 212.248 126.434C213.454 127.916 215.314 129.959 217.978 131.799C223.609 135.735 230.394 137.268 230.996 136.092C231.449 135.223 228.383 133.486 224.11 127.404C223.257 126.177 222.602 125.156 222.15 124.389C225.266 124.44 226.875 124.288 226.926 123.98C226.976 123.47 223.457 122.447 216.32 120.965C215.716 121.425 215.012 122.039 214.309 122.907ZM220.945 55.0432C225.216 55.5036 228.534 53.255 229.64 52.3856C230.596 51.4153 232.104 51.2613 233.209 52.0793C234.315 52.8973 234.667 54.3793 234.064 55.6045C234.416 56.3198 235.22 57.8018 237.029 58.9261C239.592 60.5107 242.206 60.0008 242.81 59.8981C243.313 61.0737 243.865 62.2494 244.368 63.4233C243.564 64.5989 242.157 66.2863 239.944 67.7169C236.627 69.8628 233.309 70.2204 231.752 70.2718C231.601 69.7088 231.399 69.1475 231.249 68.5844C229.589 69.6592 228.284 69.7601 227.578 69.7601C222.954 69.6078 219.738 63.1683 218.632 59.1828C218.079 57.1378 217.978 55.4009 217.978 54.3793C218.833 54.6342 219.837 54.9405 220.945 55.0432ZM148.359 53.1523C150.118 51.8243 151.175 50.2893 151.727 49.3721C152.832 50.546 154.089 51.7217 155.346 52.8973C157.357 54.7369 159.316 56.4225 161.228 57.9044C161.628 59.0287 163.088 63.7313 160.674 68.1772C159.971 69.5051 159.065 70.4754 158.312 71.1907C158.111 72.1627 157.96 73.696 158.16 75.4843C158.413 77.478 159.065 78.9599 159.569 79.8788C158.211 83.9671 156.603 88.3102 154.643 92.8588C153.386 95.8741 152.028 98.7353 150.722 101.393C149.616 98.02 148.511 94.3921 147.504 90.4066C146.5 86.4193 145.746 82.6887 145.141 79.1635C145.594 78.5509 146.097 77.6302 146.399 76.4546C147.152 73.696 146.348 71.3447 145.996 70.4754C145.141 69.5051 144.337 68.5844 143.484 67.6142C143.082 66.4385 142.679 64.9052 142.477 63.0656C142.227 59.7954 142.88 57.1378 143.484 55.5036C144.539 55.1955 146.399 54.6342 148.359 53.1523ZM59.8889 45.9974C57.9789 45.6398 56.471 46.1515 55.9174 46.4064C56.1193 48.655 55.7676 50.2893 55.4142 51.3127C55.1147 52.0793 54.763 52.7433 54.561 53.8676C54.3608 55.0946 54.4095 56.1162 54.5122 56.8315C54.3085 56.7288 52.099 55.7072 51.2928 56.5252C50.4397 57.3432 51.5436 59.6927 52.3985 60.8684C53.1524 61.9413 54.0578 62.607 54.6602 62.9647C54.911 63.7809 55.2139 65.0593 55.2662 66.5926C55.3149 68.0745 55.1147 68.6871 55.0137 70.7321C54.911 72.1627 54.8117 73.797 55.0137 75.4843C55.2662 77.7329 56.0201 79.3671 56.7218 80.7995C58.4299 84.4274 60.8431 87.1859 63.0056 89.1796C64.7642 86.6247 66.7247 83.0977 68.0324 78.6005C68.5356 76.9149 68.8368 75.3303 69.0875 73.8483L68.8873 65.4683C69.4897 64.089 70.0434 62.708 70.6458 61.38C71.4503 60.817 72.7579 59.6927 73.2593 57.9044C73.6128 56.6279 73.5623 54.7369 72.8571 54.4802C72.2547 54.2766 71.3493 55.2982 71.149 55.6045C70.6458 54.5829 70.1444 53.3559 69.7909 51.8739C69.239 49.728 69.138 47.8388 69.138 46.4064C68.586 46.2011 66.7752 45.6398 64.8147 46.4064C64.0608 46.7127 63.5088 47.1217 63.1571 47.4794C62.5529 47.0722 61.4978 46.3055 59.8889 45.9974ZM125.236 89.8949C124.382 91.9894 123.175 94.9038 121.819 98.4803C118.449 107.475 118.35 109.314 118.401 110.439C118.449 113.709 119.606 116.264 121.968 121.273C124.03 125.667 126.142 129.04 127.698 131.39C128.654 133.18 129.962 135.632 131.62 138.493C133.982 142.48 134.686 143.245 135.692 143.757C139.211 145.597 144.337 143.502 144.388 142.071C144.438 141.099 142.277 140.998 140.064 138.953C137.703 136.808 136.747 133.895 136.295 131.544C139.462 131.646 141.121 131.492 141.22 130.982C141.372 130.265 138.607 128.989 132.978 127.149L130.413 111.306L134.635 95.5677C133.279 95.1588 131.52 94.4434 129.71 93.3705C127.749 92.1435 126.292 90.9165 125.236 89.8949ZM43.1007 121.119C50.1384 122.498 53.6573 123.725 53.6086 124.798C53.5563 125.565 51.6968 126.28 47.9272 126.944C48.9318 128.58 50.5407 131.135 52.5517 134.304C55.5186 138.953 56.4728 140.281 56.0218 140.793C55.2679 141.763 50.6921 139.566 47.424 137.165C43.2034 134.099 40.6892 130.419 39.3311 128.017L43.1007 121.119ZM284.783 23.9735C285.787 19.7826 287.899 13.6493 292.775 8.18187C297.047 3.38011 303.23 -0.761222 304.386 0.363083C304.99 0.975696 304.487 3.327 298.808 11.6061C302.777 11.2998 303.582 11.7602 303.733 12.1692C303.934 12.8331 302.426 13.7025 300.113 15.5917C297.902 17.3286 296.243 18.9663 295.087 20.1402C293.579 22.7996 292.071 25.4041 290.614 28.0617C289.91 27.959 288.502 27.7023 287.095 26.6311C285.737 25.7104 285.084 24.5879 284.783 23.9735ZM169.37 73.8997L178.168 51.3127C179.474 47.2758 181.434 42.4209 184.351 37.2084C187.417 31.7409 190.734 27.3977 193.6 24.1257C194.705 21.7249 196.565 18.2493 199.781 14.8781C202.447 12.0665 206.618 8.69356 207.473 9.46021C208.025 9.91878 207.522 12.0665 202.697 19.733C204.405 19.8339 207.322 20.0906 207.473 21.0096C207.573 21.6735 206.366 22.3888 203.401 24.0248C200.585 25.5581 198.073 26.8347 195.961 27.8563C191.89 38.8957 187.817 49.9847 183.797 61.0224L176.407 82.5878C175.955 82.6905 173.493 83.2517 171.431 81.7698C169.169 80.1356 168.264 76.9149 169.37 73.8997ZM117.144 27.8563L125.135 21.6222C128.654 18.1466 129.257 16.7673 128.905 16.307C128.604 15.8484 127.65 16.2043 125.839 15.6448C124.986 15.388 124.331 15.0817 123.878 14.7737C127.799 8.4386 128.001 6.95664 127.65 6.64856C126.795 5.93503 122.975 8.79448 120.662 11.0449C117.998 13.6493 116.39 16.2574 115.133 18.4033C113.574 21.0591 112.519 23.4122 111.816 25.1474C113.574 26.068 115.383 26.9374 117.144 27.8563ZM151.425 111.103C156.25 110.899 160.826 110.49 165.048 109.978C164.444 112.023 163.69 115.191 163.892 119.127C164.092 122.5 164.897 125.258 165.55 127.098C162.334 128.376 156.503 130.216 149.012 129.807C141.974 129.398 136.646 127.201 133.58 125.667C134.587 123.982 135.642 121.784 136.547 119.127C137.552 116.06 137.954 113.351 138.105 111.257C142.277 111.359 146.7 111.308 151.425 111.103Z" fill="#EFBF9E"/>
<path d="M271.01 174.062C266.436 166.804 259.699 160.722 253.114 155.358C251.455 154.028 248.49 152.546 247.837 150.451C247.182 148.151 247.485 145.087 247.384 142.684C247.233 137.471 247.536 132.208 247.435 126.995C247.435 126.586 246.831 126.586 246.782 126.995C246.178 132.004 246.279 137.165 246.38 142.172C246.428 145.29 245.626 150.248 247.987 152.7C249.545 154.336 251.657 155.561 253.365 156.994C255.024 158.373 256.583 159.804 258.141 161.234C261.559 164.453 264.878 167.826 267.792 171.557C270.608 175.186 272.971 179.324 273.624 183.924C274.327 188.881 272.718 193.837 271.814 198.692C270.004 208.25 268.999 217.958 268.949 227.719C268.949 228.485 270.105 228.485 270.105 227.719C270.307 217.6 271.21 207.532 273.171 197.568C274.026 193.327 275.283 189.034 274.881 184.639C274.628 180.909 273.07 177.281 271.01 174.062ZM271.261 163.022C267.542 159.241 263.871 155.46 260.152 151.678C258.695 150.196 257.187 148.766 255.879 147.181C253.818 144.678 253.114 142.123 253.114 138.902C253.114 134.559 253.165 130.216 252.411 125.871C254.723 125.513 256.985 125.053 259.196 124.389C259.75 124.237 259.499 123.47 258.946 123.521C246.178 125.412 233.913 125.104 221.648 120.607C220.642 120.249 220.191 121.885 221.195 122.294C227.176 124.492 233.662 125.922 240.245 126.382C238.436 129.141 238.386 134.099 238.186 137.268C237.884 142.071 237.884 146.875 237.179 151.627C237.131 151.882 237.23 152.139 237.381 152.291C237.131 152.342 236.828 152.342 236.577 152.394C235.621 152.445 234.667 152.139 233.761 152.546C233.511 152.649 233.46 153.109 233.662 153.313C234.515 154.079 235.924 153.876 236.979 153.722C238.186 153.569 239.443 153.212 240.498 152.496C240.9 152.24 240.648 151.576 240.146 151.678C239.643 151.781 239.14 151.933 238.638 152.087C239.392 147.999 239.392 143.757 239.542 139.617C239.593 137.471 239.694 135.377 239.944 133.281C240.096 132.004 240.245 130.726 240.498 129.449C240.498 129.346 240.9 127.762 240.951 126.894H241.001C241.05 126.894 241.05 126.894 241.1 126.843C241.252 126.791 241.302 126.689 241.302 126.535C244.771 126.689 248.29 126.586 251.708 126.128C251.958 130.777 251.958 135.326 252.009 139.975C252.059 143.808 253.567 146.618 256.13 149.378C262.867 156.634 270.054 163.534 276.94 170.638C278.65 172.374 280.259 174.214 281.013 176.617C281.817 179.12 281.767 181.829 281.716 184.384C281.615 189.391 280.963 194.4 280.158 199.356C278.6 208.708 275.835 218.266 275.835 227.77C275.835 228.434 276.74 228.383 276.841 227.77C277.545 222.455 278.147 217.141 279.103 211.877C279.956 207.175 280.912 202.525 281.615 197.773C282.369 193.021 282.873 188.267 282.923 183.412C282.923 179.529 282.571 175.747 280.209 172.58C277.644 169.002 274.226 166.089 271.261 163.022ZM231.902 125.871C225.317 141.763 220.642 158.833 218.681 175.951C217.677 184.845 217.426 193.786 217.123 202.729C216.771 211.877 215.817 221.178 216.169 230.325C216.169 230.989 217.123 230.989 217.173 230.325C218.18 221.382 217.927 212.235 218.23 203.241C218.531 194.452 218.782 185.661 219.738 176.974C221.648 159.395 227.176 142.787 232.405 126.025C232.506 125.667 232.053 125.564 231.902 125.871ZM225.418 124.031C225.519 123.674 224.965 123.521 224.864 123.879C219.587 140.896 215.465 158.525 213.153 176.208C211.997 185.202 211.544 194.246 211.443 203.292C211.393 212.644 211.293 222.251 212.248 231.552C212.298 232.216 213.254 232.216 213.254 231.552C213.254 222.455 212.498 213.411 212.549 204.314C212.599 195.268 213.052 186.172 214.208 177.229C216.47 159.088 221.547 141.763 225.418 124.031ZM272.92 62.0953C273.624 61.226 273.874 60.0503 274.276 59.0287C274.78 57.7008 275.232 56.3198 275.734 54.9918C275.885 54.6342 275.232 54.3279 275.081 54.7369C274.529 56.0648 273.925 57.3431 273.373 58.6711C272.92 59.6927 272.316 60.716 272.265 61.8404C272.217 62.1467 272.718 62.3503 272.92 62.0953ZM199.48 99.2983C197.972 100.984 197.018 103.539 197.62 105.839C197.772 106.35 198.675 106.299 198.576 105.686C198.324 103.489 198.525 101.598 199.932 99.8082C200.234 99.4505 199.781 98.9406 199.48 99.2983ZM288.251 26.6806C286.844 25.914 285.888 24.6887 285.235 23.2581C284.983 22.6951 284.178 23.1041 284.33 23.6671C284.934 26.7833 287.598 28.0103 290.111 29.3896C290.462 29.5932 290.966 29.3382 290.915 28.931C290.764 27.4473 289.306 27.2437 288.251 26.6806ZM213.052 127.659C213.454 124.849 214.811 122.498 216.672 120.403C216.923 120.148 216.621 119.688 216.27 119.892C213.654 121.425 212.098 124.288 211.645 127.301C211.494 128.325 212.852 128.477 213.052 127.659ZM232.807 104.305C232.304 104.305 232.254 105.021 232.706 105.123C234.315 105.635 236.225 105.43 237.884 105.277C238.335 105.226 238.335 104.562 237.884 104.562C236.175 104.663 234.515 104.305 232.807 104.305ZM250.349 105.021C251.958 105.277 254.321 105.072 255.477 103.744C255.677 103.539 255.477 103.08 255.176 103.181C254.422 103.438 253.818 103.948 253.013 104.153C252.16 104.408 251.305 104.459 250.45 104.408C250.099 104.357 249.998 104.971 250.349 105.021ZM216.672 96.947C217.476 94.0857 217.525 90.7642 217.828 87.8003C217.879 87.3913 217.173 87.2886 217.123 87.6976C216.621 90.6101 215.817 93.8308 215.867 96.8443C215.867 97.3046 216.52 97.4073 216.672 96.947ZM261.961 90.4065C262.062 90.9165 262.816 90.7642 262.816 90.3038C262.565 84.631 261.157 78.3968 257.236 74.1546C256.985 73.8996 256.633 74.2573 256.834 74.5636C260.655 79.1635 261.056 84.7337 261.961 90.4065ZM232.304 70.7834C236.878 70.424 241.553 67.7682 244.067 63.7809C244.268 63.4232 243.764 63.0656 243.514 63.3223C240.296 66.7961 236.777 68.7898 232.153 69.6591C231.55 69.7601 231.702 70.833 232.304 70.7834ZM235.17 65.6718C235.823 64.9052 236.425 64.2412 236.979 63.3719C237.432 62.607 238.034 61.789 238.135 60.9197C238.186 60.562 237.682 60.408 237.482 60.6134C236.878 61.226 236.577 62.1467 236.175 62.9133C235.722 63.7313 235.269 64.5989 234.768 65.3655C234.616 65.5709 234.968 65.8772 235.17 65.6718ZM229.64 53.7648C229.792 53.2549 230.293 52.8973 230.796 52.8459C230.495 53.6639 230.343 54.5315 230.444 55.4008C230.495 55.6558 230.796 55.6558 230.796 55.4008C230.897 54.5315 231.047 53.7648 231.35 52.9486C231.399 52.9486 231.449 52.9982 231.449 52.9982C232.153 53.4072 232.153 54.2252 232.104 54.9405C232.104 55.1954 232.456 55.2981 232.555 55.0432C233.058 54.0729 232.405 52.6919 231.449 52.3342C230.495 51.9766 229.288 52.5892 229.187 53.6639C229.187 53.9702 229.59 53.9702 229.64 53.7648ZM155.446 72.2141C155.749 71.9573 155.397 71.4474 155.045 71.5483C154.19 71.7537 153.487 72.1627 152.531 72.1627C151.526 72.1627 150.671 71.8564 149.816 71.4474C149.566 71.3447 149.214 71.651 149.465 71.9077C150.973 73.2357 153.839 73.542 155.446 72.2141ZM131.721 197.874C132.525 197.977 133.43 197.874 134.184 197.773C134.635 197.722 134.635 196.904 134.184 196.852C133.38 196.75 132.525 196.649 131.721 196.75C130.967 196.801 130.967 197.824 131.721 197.874ZM181.636 189.494C182.34 189.494 183.094 189.391 183.747 189.239C184.351 189.085 185.153 188.933 185.556 188.472C185.758 188.216 185.707 187.757 185.355 187.706C184.702 187.603 184.149 187.909 183.546 188.115C182.841 188.318 182.188 188.472 181.485 188.727C181.083 188.779 181.133 189.494 181.636 189.494ZM192.492 240.546C188.22 240.596 184.149 240.853 179.876 240.29C175.704 239.728 171.632 238.604 167.662 237.173C167.31 237.019 167.007 237.683 167.409 237.837C174.95 241.363 184.399 243.459 192.694 241.926C193.448 241.772 193.246 240.546 192.492 240.546ZM193.297 236.1C188.723 236.764 184.351 237.582 179.724 236.968C175.704 236.407 171.833 235.128 168.565 232.676C168.114 232.318 167.662 233.085 168.114 233.443C175.302 238.859 185.153 240.035 193.648 237.377C194.453 237.122 194.101 235.998 193.297 236.1ZM142.779 242.999C141.473 244.071 139.009 244.429 137.4 244.838C135.189 245.401 132.927 245.707 130.665 245.759C126.292 245.808 122.674 244.635 118.702 242.999C118.049 242.744 117.696 243.765 118.249 244.123C122.12 246.678 127.397 247.342 131.872 246.984C134.083 246.832 136.345 246.371 138.457 245.707C139.864 245.247 142.277 244.684 142.981 243.202C143.13 242.999 142.93 242.896 142.779 242.999ZM118.449 241.414C126.191 241.671 134.235 243.714 141.774 240.75C142.126 240.596 142.126 239.932 141.673 239.983C137.301 240.546 133.178 241.108 128.755 240.904C126.542 240.801 124.382 240.596 122.17 240.392C120.913 240.238 118.852 239.473 117.797 240.29C117.495 240.495 117.394 240.955 117.696 241.21L117.797 241.313C117.948 241.517 118.249 241.568 118.449 241.414ZM164.745 127.046C162.182 127.609 159.718 128.426 157.105 128.734C154.34 129.091 151.526 129.141 148.711 129.192C143.735 129.295 138.758 128.989 134.486 126.128C133.732 125.616 133.079 126.843 133.782 127.353C137.853 130.317 142.93 130.726 147.805 130.623C148.208 131.799 147.957 134.354 148.007 135.377C148.058 136.96 148.007 138.544 147.957 140.129C147.805 143.553 147.304 146.926 146.599 150.248C146.047 150.094 145.493 149.89 144.941 149.787C144.59 149.736 144.438 150.145 144.689 150.349C145.394 150.912 146.348 151.115 147.203 151.372C147.957 151.627 148.911 151.985 149.665 151.678C149.968 151.576 150.067 151.167 149.766 150.963C149.214 150.605 148.559 150.605 147.906 150.503C148.711 146.466 149.164 142.326 149.214 138.187C149.214 135.99 149.113 133.741 148.812 131.595C148.761 131.237 148.761 130.88 148.66 130.623C154.089 130.471 160.171 130.368 164.897 127.404C165.097 127.252 164.998 126.995 164.745 127.046ZM150.118 125.462C150.421 125.258 150.469 124.849 150.32 124.594C150.32 124.594 150.32 124.543 150.269 124.543C150.168 124.338 149.867 124.185 149.665 124.288H149.616C149.265 124.44 149.113 124.746 149.214 125.053V125.155C149.164 125.77 149.867 125.871 150.118 125.462ZM165.55 107.781C161.026 107.218 156.151 107.935 151.577 107.935C146.851 107.935 141.926 108.087 137.301 106.963C136.446 106.759 136.145 107.985 136.948 108.293C141.271 109.927 146.599 109.366 151.124 109.314C155.848 109.263 161.077 109.569 165.651 108.241C165.901 108.19 165.802 107.832 165.55 107.781ZM123.124 83.2517C125.186 84.0184 127.197 84.53 129.208 85.5517C130.967 86.4192 132.576 87.5949 134.184 88.6678C134.284 88.7192 134.385 88.7192 134.435 88.7192C134.385 89.0768 134.385 89.4858 134.334 89.8435C134.083 92.5524 134.184 95.2101 135.189 97.765C135.44 98.3776 136.446 98.1226 136.194 97.4587C134.184 92.5011 135.038 86.5219 136.396 81.4634C136.497 81.1058 135.993 81.0031 135.892 81.3094C135.49 82.331 135.189 83.4553 134.938 84.5796C134.938 84.5301 134.938 84.53 134.888 84.4787C133.782 82.9967 132.475 81.7697 130.866 80.8491C129.408 80.0328 127.397 78.9085 125.74 79.1635C125.386 79.2148 125.085 79.7761 125.538 79.9815C127.046 80.6454 128.705 80.6968 130.213 81.5148C131.822 82.3824 133.178 83.558 134.385 84.9373C134.536 85.1427 134.787 85.04 134.938 84.8877C134.736 85.9093 134.635 86.9309 134.536 87.9012C131.62 85.2949 127.298 82.8941 123.377 82.2814C122.773 82.1787 122.522 82.9967 123.124 83.2517ZM165.147 108.957C160.674 110.336 156.301 109.723 151.727 109.775C149.515 109.775 147.304 110.03 145.04 110.285C142.829 110.49 139.161 111.46 137.552 109.518C137.099 109.008 136.396 109.569 136.497 110.132C136.798 111.664 138.154 112.124 139.563 112.227C142.779 112.482 146.198 111.664 149.414 111.46C154.692 111.103 160.523 112.227 165.4 109.569C165.701 109.366 165.45 108.854 165.147 108.957ZM172.838 92.9101C173.392 93.2164 173.946 92.5011 173.493 92.0408C172.838 91.3768 172.236 90.7128 171.583 90.1002C172.739 89.6399 173.592 89.0255 174.396 88.0039C175.051 87.1859 176.005 85.7553 175.755 84.5796C175.654 84.1706 175.15 84.222 174.95 84.4787C174.649 84.8364 174.598 85.2454 174.447 85.7039C174.247 86.267 173.895 86.8282 173.543 87.3399C172.889 88.2093 171.985 88.9759 171.029 89.5372C169.873 88.3615 168.818 87.1363 167.862 85.7039C166.857 84.222 166.002 82.74 165.147 81.1571C165.299 81.1571 165.4 81.0544 165.4 80.8491V80.6454C165.499 80.6454 165.55 80.4914 165.499 80.4418C165.45 80.3905 165.45 80.3905 165.4 80.3905C165.349 79.4698 165.499 78.5509 165.952 77.6815C166.204 77.2212 166.506 76.8122 166.908 76.5059C167.31 76.1482 167.763 76.0455 168.114 75.6365C168.365 75.3302 168.214 74.769 167.763 74.769C166.607 74.8717 165.651 76.2509 165.198 77.2212C164.745 78.1419 164.545 79.1121 164.696 80.1338C164.444 79.6752 164.193 79.1635 163.941 78.7031C163.741 78.3455 163.237 78.6518 163.389 79.0095C165.6 83.813 167.811 90.2525 172.838 92.9101ZM147.555 90.8651C148.309 93.9831 148.61 97.51 149.766 100.523C149.867 100.78 150.118 100.883 150.37 100.832C150.52 101.29 151.175 101.547 151.476 100.984C154.793 94.0344 158.562 86.7769 159.268 79.0095C159.316 78.7031 158.815 78.6518 158.764 78.9599C156.854 86.267 154.039 93.0641 150.722 99.8082C150.469 96.7434 149.465 93.4714 148.711 90.5588C147.755 86.8796 146.599 83.2517 145.042 79.8274C144.891 79.5211 144.388 79.7248 144.489 80.0824C145.493 83.6094 146.649 87.1859 147.555 90.8651ZM114.932 27.6013C112.972 31.5868 111.664 35.9814 110.055 40.1209C108.196 44.8218 106.235 49.5226 104.224 54.1738C103.973 54.7369 104.778 55.1954 105.029 54.6342C106.939 50.3937 108.749 46.1001 110.407 41.7551C112.167 37.2084 114.278 32.5571 115.383 27.8049C115.434 27.55 115.082 27.3446 114.932 27.6013ZM102.516 55.7585C97.0367 64.2926 91.2055 72.6726 86.0778 81.4121C86.4313 79.2148 86.8822 77.0176 87.7876 74.9726C87.8381 74.8203 87.6361 74.6663 87.5369 74.8203C86.0778 77.4779 85.4249 80.3905 84.8224 83.3544C84.1678 86.676 83.0116 90.3038 83.1126 93.6254C83.1126 93.9831 83.5653 94.0344 83.7168 93.7281C85.1741 90.1002 85.4249 86.1129 85.9786 82.2301C86.0778 82.2814 86.2293 82.2301 86.2798 82.1274C92.1109 73.5933 97.3884 64.7016 103.22 56.1675C103.521 55.7585 102.817 55.3495 102.516 55.7585ZM111.211 26.6806C113.875 26.732 116.038 27.1427 118.098 28.9806C118.401 29.2869 118.803 28.8265 118.55 28.522C116.893 26.323 113.825 24.8428 111.062 25.5563C110.458 25.7599 110.609 26.6806 111.211 26.6806ZM43.2017 121.22C43.3497 120.71 42.6985 120.504 42.3955 120.862C42.2441 121.119 42.0926 121.322 41.9446 121.579C40.9887 119.994 39.8308 118.461 38.6259 117.082C36.9179 115.191 33.197 113.197 34.0014 110.336C34.6038 108.291 35.9132 106.299 36.7159 104.254C37.5203 102.159 38.2237 100.063 38.7774 97.9172L39.0769 98.8379C40.1338 101.954 40.8877 105.276 42.1953 108.24C42.3451 108.597 42.9492 108.445 42.8987 108.036C42.547 104.817 41.1384 101.596 40.0345 98.5316C38.7252 94.9533 37.2696 91.4795 35.861 87.9525C35.7617 87.6976 35.3073 87.7985 35.41 88.0552C36.4147 91.0191 37.421 93.9831 38.4257 96.8956C37.421 99.8082 36.3119 102.721 35.0566 105.532C34.5046 106.809 33.9022 108.087 33.2475 109.314C32.8958 109.978 32.2916 110.846 32.2916 111.664C32.2916 113.452 34.2539 114.321 35.41 115.394C37.6718 117.491 39.4808 119.892 41.1907 122.498C41.1907 122.549 41.2394 122.549 41.2899 122.601C40.334 124.389 39.6306 126.28 38.323 127.813C37.7728 128.477 38.6259 129.346 39.2806 128.783C40.334 127.914 40.8372 126.483 41.3909 125.258C42.0438 123.928 42.7978 122.601 43.2017 121.22ZM98.1928 194.807C98.8962 194.655 98.595 193.582 97.8916 193.735C96.032 194.195 94.1707 194.45 92.2607 194.604C91.6077 194.655 91.6077 195.677 92.2607 195.625C94.2717 195.574 96.2323 195.268 98.1928 194.807ZM34.7066 191.231C33.7002 191.334 32.746 191.334 31.7414 191.282C30.937 191.231 30.183 190.925 29.4274 191.282C29.2289 191.385 29.1767 191.743 29.3786 191.844C29.9828 192.407 30.7855 192.304 31.5899 192.355C32.6468 192.407 33.7002 192.355 34.7066 192.253C35.3595 192.201 35.3595 191.18 34.7066 191.231ZM109.603 231.807C104.175 232.267 98.7952 232.88 93.368 233.237C92.5636 233.289 92.5636 234.565 93.368 234.516C98.8457 234.158 104.325 233.492 109.653 232.267C109.906 232.216 109.855 231.807 109.603 231.807ZM93.6188 228.843L93.5683 228.792C98.2433 227.513 102.918 226.288 107.492 224.703C107.895 224.549 107.743 224.039 107.341 224.091C102.365 225.112 97.4894 226.543 92.6141 227.871C92.1614 227.974 92.0604 228.689 92.4626 228.946C92.7134 229.047 92.9658 229.201 93.1661 229.303C93.4673 229.456 93.7703 229.149 93.6188 228.843ZM32.5441 224.549C27.3693 224.448 21.9891 225.316 16.8614 226.339C16.1597 226.492 16.4592 227.565 17.1644 227.412C22.2921 226.492 27.4686 225.982 32.6468 225.265C33.0473 225.215 32.948 224.549 32.5441 224.549ZM31.4402 231.398C25.6108 231.501 19.6786 232.164 13.9467 232.982C13.3443 233.083 13.494 234.158 14.0982 234.055C19.8788 233.492 25.71 233.034 31.4402 232.368C32.0426 232.317 32.0931 231.398 31.4402 231.398ZM47.2725 137.726C46.2679 138.953 45.2145 140.078 43.9051 140.945C43.2522 141.354 42.5488 141.763 41.8436 142.07C41.2412 142.326 40.7902 142.326 40.388 142.836C40.2365 143.042 40.287 143.297 40.5377 143.348C41.7948 143.757 43.6039 142.326 44.5598 141.611C45.8169 140.639 46.9226 139.414 47.727 138.033C47.828 137.778 47.4763 137.471 47.2725 137.726ZM62.5547 123.52C61.5501 123.622 60.5454 123.674 59.539 123.725C61.0486 131.287 61.0974 139.414 60.8971 147.13C62.7567 139.362 63.1589 131.595 62.5547 123.52ZM81.9582 136.602C82.1585 136.808 81.9077 137.165 81.657 137.011C75.9756 134.099 70.1949 129.09 68.8891 122.447C66.979 122.907 65.0185 123.265 63.0579 123.468C64.4143 131.696 63.9128 140.281 61.9018 148.355C62.8559 147.897 63.7613 147.334 64.7155 146.824C65.0185 146.67 65.2692 147.027 65.069 147.282C64.1635 148.254 62.9569 149.072 61.5988 149.685V149.787C61.4473 150.297 60.9459 150.297 60.5942 150.094C58.6841 150.655 56.6731 150.655 55.1165 149.531C54.662 149.173 54.9128 148.355 55.5187 148.561C57.0265 149.021 58.1322 149.378 59.5878 149.173C59.7393 144.984 59.7915 140.742 59.64 136.551C59.539 132.31 59.0376 128.068 58.9853 123.826H55.9696C56.0219 123.877 56.0219 123.928 56.0219 124.031C54.965 126.944 53.6574 129.856 52.1495 132.514C51.8483 133.026 51.1431 132.565 51.3939 132.054C52.651 129.295 54.514 126.74 55.6179 123.928C55.6179 123.877 55.6667 123.877 55.6667 123.826C52.3515 123.674 49.0329 123.162 45.7647 122.294C44.962 122.089 45.3137 120.812 46.1164 121.016C56.5233 123.826 67.4805 123.111 77.3842 118.716C77.8856 118.461 78.3383 119.279 77.8351 119.483C75.1207 120.71 72.307 121.68 69.441 122.395C70.4962 125.616 72.0057 128.323 74.5182 130.674C76.8305 132.769 79.6964 134.302 81.9582 136.602ZM68.8386 69.4024C70.5971 70.5267 72.4079 71.5483 74.0655 72.7753C75.6744 73.951 77.0325 75.4843 78.6396 76.6581C77.4834 76.9149 76.3778 77.3752 75.3227 77.8338C74.2675 78.2941 72.9599 78.7031 72.105 79.5211C71.8543 79.7761 72.105 80.0824 72.4079 80.0311H72.4567C72.4567 80.0824 72.4567 80.1338 72.5072 80.1338C73.9645 81.7184 74.9709 83.5067 75.5734 85.5499C71.9552 85.3463 67.1287 86.6742 64.5658 89.2309C64.2645 89.5372 64.5658 90.2011 65.0185 89.9975C66.878 89.2805 68.4869 88.1562 70.3969 87.4922C72.307 86.8282 74.217 86.5733 76.1776 86.1129C76.3273 86.0616 76.3778 86.0102 76.3778 85.9093C76.5293 85.8066 76.5798 85.6526 76.5293 85.449C76.0261 83.2517 74.7202 81.2581 72.9094 79.8788C73.8653 79.5725 74.8195 78.9581 75.7249 78.5491C76.9315 77.9878 78.1886 77.5275 79.3447 76.8635C79.4945 76.7608 79.444 76.6086 79.3447 76.5572C79.3935 76.4545 79.3935 76.3518 79.3447 76.2509C78.2374 74.6149 76.4283 73.287 74.8699 72.1114C73.1114 70.7817 71.2013 69.5564 69.1398 68.7384C68.7376 68.6871 68.5373 69.1988 68.8386 69.4024ZM41.7444 80.4401C41.7444 80.5428 41.7948 80.6454 41.8958 80.6454C43.7066 81.1554 45.4652 81.7697 47.2725 82.2797C48.6306 82.6887 50.0897 83.2517 51.4966 83.3031C50.6922 84.376 50.0375 85.449 49.536 86.6742C49.3846 87.0336 49.7868 87.3399 50.0897 87.2372C54.864 86.0616 58.9853 87.8498 63.0579 90.0985C63.1084 90.0985 63.1589 90.1498 63.2076 90.1498C63.4601 92.1948 63.7108 94.1867 63.8623 96.2317C64.0121 98.3262 63.8118 100.575 64.3638 102.568C64.4648 102.977 65.1177 102.977 65.2187 102.568C66.2738 98.5812 64.766 92.9101 63.7108 89.0255V88.9742C63.7108 88.9228 63.7613 88.8732 63.7613 88.8219C64.0121 87.1859 65.069 86.0102 65.7219 84.5796C66.4253 83.0463 66.8275 81.3094 67.3307 79.6734C68.2849 76.4032 68.9396 73.1843 68.8386 69.7601C68.8386 69.4538 68.3859 69.4538 68.3859 69.7601C68.3354 73.5933 67.3307 77.2212 66.1241 80.8491C65.5704 82.5364 65.0185 84.1706 64.0626 85.6526C63.5106 86.5733 63.1084 87.2372 62.9064 88.1562C58.5831 83.3526 56.3718 77.9365 55.1652 71.5483C55.1165 71.242 54.6133 71.2934 54.6133 71.5997C54.9128 77.2725 57.427 82.8941 60.8449 87.3913C57.7804 85.9093 54.1101 85.7039 50.7427 86.1643C51.1431 85.1922 51.5976 84.222 52.2 83.3031C52.2 83.2517 52.2505 83.2004 52.2505 83.2004C52.4508 83.0977 52.503 82.7914 52.2993 82.6373C50.9429 81.7698 49.1843 81.5644 47.6243 81.2581C45.8657 80.9004 44.1054 80.5428 42.3973 80.1851C46.1686 77.1698 49.738 72.4177 54.5628 71.242C54.8135 71.1907 54.7648 70.7303 54.514 70.7303C52.0485 71.0384 49.738 72.9789 47.7757 74.36C45.6132 75.9428 43.2522 77.6302 41.6434 79.8274C41.4431 80.0824 41.5929 80.3391 41.7444 80.4401ZM58.4316 66.5412C60.8449 68.1241 64.315 68.9421 66.2738 66.2331C66.4253 66.0295 66.1241 65.7232 65.9221 65.8755C64.7155 66.6935 64.0121 67.4601 62.4537 67.3574C61.0974 67.2565 59.8402 66.6421 58.6354 66.1322C58.3829 66.0808 58.2836 66.4385 58.4316 66.5412ZM70.9993 58.4161C71.3006 58.2107 71.553 57.9557 71.8543 57.699C72.0057 57.5981 72.1555 57.4441 72.2565 57.2918C72.1555 57.9557 71.9552 58.6711 71.9048 58.8747C71.9048 59.1314 72.2565 59.181 72.3575 58.9774C72.7092 58.3134 72.8084 56.9837 72.7092 56.2684C72.6082 55.8098 72.307 55.3495 71.8543 55.7071C71.6523 55.8594 71.8543 56.1161 72.0545 56.1161C72.2565 56.0648 72.307 56.3198 72.307 56.6774C72.0057 56.8314 71.8038 57.0351 71.553 57.2918C71.2518 57.5981 70.9993 57.8531 70.7486 58.1594C70.7486 58.3134 70.8496 58.517 70.9993 58.4161ZM51.8971 58.1594C51.8971 57.4954 52.4508 57.1891 53.1054 57.2404C53.3562 57.2918 53.3562 57.5981 53.1054 57.5981C52.9539 57.5981 52.8025 57.5981 52.651 57.699C53.3562 58.108 54.0596 58.6197 54.514 59.2837C54.5628 59.3864 54.4618 59.4891 54.3625 59.4377C53.7584 59.0287 53.2047 58.6197 52.503 58.3647C52.503 58.4161 52.5517 58.4657 52.5517 58.517C52.7032 58.8233 52.9539 59.0287 53.1542 59.2323C53.5076 59.5404 53.0532 60.153 52.651 59.8981C52.1495 59.5404 51.8971 58.8233 51.8971 58.1594Z" fill="#3B5672"/>
</svg>
