<svg width="19" height="18" viewBox="0 0 19 18" fill="none" xmlns="http://www.w3.org/2000/svg">
<path d="M3.524 4.41303C3.52693 3.25348 3.98396 2.14133 4.79705 1.31498C5.6203 0.488027 6.7404 0.0253267 7.9072 0.0298267H11.0934H11.0932C12.2572 0.0247487 13.3748 0.485297 14.1973 1.30893C15.0137 2.13628 15.4729 3.25073 15.4764 4.41303C15.4769 5.92183 14.6947 7.32278 13.4098 8.11363L13.0385 10.1671C12.9902 10.4337 12.7582 10.6275 12.4873 10.6277H10.6973L10.6811 10.631L10.6648 10.6277H8.33574L8.31953 10.631L8.30332 10.6277H6.51307C6.20389 10.6277 5.95312 10.3769 5.95312 10.0677C5.95312 9.75835 6.2039 9.50757 6.51307 9.50757H7.75957V8.78297C7.75957 8.47379 8.01016 8.22302 8.31952 8.22302C8.6287 8.22302 8.87947 8.4738 8.87947 8.78297V9.50757H10.1209V8.78297C10.1209 8.47379 10.3717 8.22302 10.6808 8.22302C10.9902 8.22302 11.2408 8.4738 11.2408 8.78297V9.50757H12.0195L12.3537 7.65857V7.65877C12.3843 7.49002 12.4904 7.34471 12.6413 7.26385C13.1591 6.98924 13.5923 6.5787 13.8944 6.07655C14.1966 5.5742 14.3564 4.9992 14.3564 4.41305C14.3528 3.5449 14.0093 2.71265 13.3993 2.0947C12.7872 1.48515 11.9571 1.1451 11.0931 1.1498H7.90711C7.04031 1.1455 6.20771 1.48788 5.59481 2.1008C4.98816 2.7178 4.64676 3.5477 4.64381 4.4131C4.64381 4.99925 4.80358 5.57425 5.10573 6.0766C5.40788 6.57875 5.84108 6.9893 6.35883 7.2639C6.49027 7.33362 6.58871 7.45276 6.63227 7.59515C6.67582 7.73734 6.66098 7.89124 6.59106 8.02269C6.52094 8.15394 6.4016 8.25198 6.25902 8.29515C6.11664 8.33831 5.96274 8.32308 5.83168 8.25257C5.13443 7.88265 4.55143 7.32972 4.14478 6.65317C3.73814 5.97682 3.52348 5.20237 3.52388 4.41312L3.524 4.41303ZM8.584 5.51343V5.51323C8.584 5.36479 8.52521 5.22222 8.42014 5.11714C8.31506 5.01225 8.17248 4.95327 8.02404 4.95327H6.67699C6.36781 4.95327 6.11704 5.20405 6.11704 5.51322C6.11704 5.8226 6.36782 6.07317 6.67699 6.07317H8.02404C8.17248 6.07337 8.31506 6.01438 8.42014 5.90931C8.52522 5.80423 8.584 5.66185 8.584 5.51321V5.51343ZM12.3231 6.07338V6.07318C12.6322 6.07318 12.883 5.8226 12.883 5.51323C12.883 5.20405 12.6322 4.95328 12.3231 4.95328H10.976C10.6668 4.95328 10.4161 5.20406 10.4161 5.51323C10.4161 5.82261 10.6668 6.07318 10.976 6.07318L12.3231 6.07338ZM18.4576 11.9464H18.4574C18.3392 11.6505 18.1089 11.4132 17.8168 11.2862C17.9597 11.0011 17.9841 10.6712 17.8849 10.3681C17.8197 10.1655 17.6839 9.99308 17.5025 9.88194C17.3209 9.77081 17.1056 9.72862 16.8957 9.76261C16.6113 9.81046 15.9873 10.08 15.866 11.3966L9.49995 13.6968L7.17535 12.8572L3.13435 11.3966C3.01306 10.0798 2.38905 9.81026 2.10465 9.76241V9.7626C1.89449 9.72881 1.67945 9.7712 1.498 9.88233C1.31655 9.99327 1.18081 10.1655 1.11519 10.3681C1.01597 10.6712 1.04058 11.0015 1.18355 11.2866C0.891359 11.4134 0.660899 11.6505 0.542749 11.9462C0.463454 12.1436 0.457399 12.3628 0.525562 12.5643C0.593532 12.7659 0.731422 12.9364 0.914037 13.0454C1.06267 13.1301 1.23123 13.1741 1.40232 13.1723C1.92752 13.1143 2.40957 12.8544 2.74667 12.4475L6.79452 13.9106L7.85177 14.2925L5.13652 15.2735C4.19687 14.3354 3.54377 14.5302 3.29492 14.6751H3.29511C3.1125 14.784 2.9748 14.9546 2.90664 15.1559C2.83867 15.3575 2.84472 15.5764 2.92383 15.7739C3.04726 16.0657 3.2791 16.2981 3.57073 16.4221C3.42288 16.7098 3.39592 17.045 3.4965 17.3526C3.55998 17.5561 3.69533 17.7297 3.87717 17.841C4.059 17.9524 4.27502 17.994 4.48517 17.958C4.76974 17.9102 5.39317 17.6412 5.51527 16.3276L16.2533 12.4475H16.2531C16.5902 12.8545 17.0724 13.1145 17.5976 13.1723C17.7687 13.174 17.9373 13.1303 18.0859 13.0455C18.2685 12.9365 18.4064 12.7658 18.4744 12.5643C18.5425 12.3629 18.5365 12.1436 18.4572 11.9463L18.4576 11.9464ZM15.705 14.6753C15.4562 14.5304 14.8033 14.3356 13.8634 15.2737L12.102 14.6376V14.6374C11.8122 14.536 11.4948 14.6868 11.3904 14.9757C11.2861 15.2645 11.4337 15.5835 11.7214 15.6907L13.4849 16.3276C13.607 17.6413 14.2304 17.9102 14.515 17.9581C14.7252 17.994 14.9412 17.9524 15.123 17.8411C15.3048 17.7297 15.4402 17.5561 15.5037 17.3526C15.6041 17.045 15.5773 16.7098 15.4293 16.4221C15.7209 16.2981 15.9529 16.0657 16.0763 15.7739C16.1554 15.5764 16.1615 15.3575 16.0933 15.1559C16.0253 14.9546 15.8876 14.7841 15.705 14.6753L15.705 14.6753Z" fill="black"/>
</svg>
