<svg width="19" height="18" viewBox="0 0 19 18" fill="none" xmlns="http://www.w3.org/2000/svg">
<path d="M17.6901 6.81592H15.9508C15.8573 6.52998 15.7422 6.25147 15.6071 5.98272L16.8266 4.76317C16.9579 4.63192 17.0317 4.45399 17.0317 4.26825C17.0317 4.0827 16.9579 3.90458 16.8266 3.77333L14.7266 1.67333C14.5954 1.54208 14.4174 1.46825 14.2317 1.46825C14.0461 1.46825 13.868 1.54208 13.7368 1.67333L12.5178 2.89228H12.518C12.2487 2.75751 11.97 2.64286 11.684 2.54911V0.809863C11.684 0.624318 11.6104 0.446193 11.4791 0.314943C11.3477 0.183498 11.1696 0.109863 10.984 0.109863H8.01566C7.83011 0.109863 7.65199 0.183498 7.52074 0.314943C7.38929 0.446193 7.31566 0.624318 7.31566 0.809863V2.54911C7.02972 2.64286 6.75101 2.75751 6.48186 2.89228L5.26291 1.67333C5.13166 1.54208 4.95373 1.46825 4.76799 1.46825C4.58244 1.46825 4.40432 1.54208 4.27307 1.67333L2.17307 3.77333C2.04182 3.90458 1.96799 4.08251 1.96799 4.26825C1.96799 4.45379 2.04182 4.63192 2.17307 4.76317L3.39262 5.98272C3.25746 6.25147 3.14242 6.52997 3.04887 6.81592H1.30962C1.12407 6.81592 0.94595 6.88955 0.8147 7.0208C0.683255 7.15225 0.609619 7.33037 0.609619 7.51592V10.4841C0.609619 10.6698 0.683255 10.8479 0.8147 10.9792C0.94595 11.1104 1.12407 11.1843 1.30962 11.1841H3.04887C3.14242 11.47 3.25746 11.7485 3.39262 12.0175L2.17307 13.237C2.04182 13.3683 1.96799 13.5462 1.96799 13.7319C1.96799 13.9175 2.04182 14.0956 2.17307 14.2269L4.27307 16.3269C4.40432 16.4581 4.58225 16.5317 4.76799 16.5317C4.95353 16.5317 5.13166 16.4581 5.26291 16.3269L6.48246 15.1073C6.75121 15.2425 7.02971 15.3573 7.31566 15.4511V17.1903C7.31566 17.3759 7.3893 17.554 7.52055 17.6852C7.65199 17.8167 7.83011 17.8903 8.01566 17.8903H10.9838C11.1696 17.8903 11.3477 17.8167 11.4789 17.6852C11.6102 17.554 11.684 17.3759 11.6838 17.1903V15.4511C11.9698 15.3575 12.2483 15.2425 12.5172 15.1073L13.7368 16.3269C13.868 16.4581 14.0459 16.5319 14.2317 16.5319C14.4172 16.5319 14.5954 16.4581 14.7266 16.3269L16.8266 14.2269C16.9579 14.0956 17.0315 13.9177 17.0315 13.7319C17.0315 13.5464 16.9579 13.3683 16.8266 13.237L15.6071 12.0175C15.7422 11.7487 15.8571 11.4702 15.9508 11.1843H17.6901C17.8756 11.1843 18.0537 11.1106 18.185 10.9794C18.3164 10.8479 18.3901 10.6698 18.3901 10.4843V7.51592C18.3901 7.33037 18.3164 7.15225 18.185 7.021C18.0537 6.88955 17.8756 6.81592 17.6901 6.81592H17.6901ZM16.9901 9.78407L15.4219 9.78426C15.0977 9.78407 14.8159 10.0067 14.7411 10.3222C14.6241 10.8316 14.4229 11.3177 14.1456 11.7605C13.9692 12.0372 14.0088 12.3995 14.2413 12.6314L15.3419 13.732L14.2317 14.8421L13.1311 13.7415C12.8991 13.5097 12.5372 13.4698 12.2602 13.6458C11.8172 13.9232 11.3311 14.1243 10.8219 14.2413C10.5065 14.3161 10.2838 14.5979 10.2838 14.9222V16.4903H8.71566V14.9222C8.71586 14.5979 8.4932 14.3161 8.17776 14.2413C7.66836 14.1243 7.18226 13.9231 6.73946 13.6458C6.4625 13.4698 6.10061 13.5097 5.86856 13.7415L4.76796 14.8421L3.65781 13.732L4.75841 12.6314C4.99063 12.3995 5.03048 12.0372 4.85412 11.7605C4.57677 11.3175 4.3756 10.8314 4.25861 10.3222C4.18381 10.0067 3.90197 9.78406 3.57776 9.78426H2.00961V8.21591H3.57776C3.90198 8.21611 4.18381 7.99345 4.25861 7.67801C4.3756 7.16861 4.57678 6.68251 4.85412 6.23971C5.03048 5.96295 4.99083 5.60066 4.75841 5.36881L3.65781 4.26821L4.76796 3.15806L5.86856 4.25866C6.10098 4.49069 6.46331 4.53015 6.74026 4.35358C7.18284 4.07663 7.66876 3.87565 8.17776 3.75883C8.49319 3.68403 8.71586 3.40219 8.71566 3.07798V1.50983H10.2838L10.284 3.07798C10.2838 3.4022 10.5065 3.68403 10.8219 3.75883C11.3309 3.87563 11.8168 4.07661 12.2594 4.35358C12.5364 4.53034 12.8989 4.49069 13.1311 4.25866L14.2317 3.15806L15.3419 4.26821L14.2413 5.36881C14.009 5.60065 13.9692 5.96296 14.1456 6.23971C14.4229 6.68268 14.6241 7.16881 14.7411 7.67801C14.8159 7.99344 15.0977 8.21611 15.4219 8.21611H16.99L16.9901 9.78407ZM9.50006 6.03192C8.71276 6.03192 7.95786 6.34461 7.40121 6.90127C6.84456 7.45792 6.53185 8.21277 6.53185 9.00012C6.53185 9.78747 6.84455 10.5423 7.40121 11.099C7.95786 11.6556 8.7127 11.9683 9.50006 11.9683C10.2874 11.9683 11.0423 11.6556 11.5989 11.099C12.1556 10.5423 12.4683 9.78747 12.4683 9.00012C12.4673 8.21322 12.1544 7.45872 11.598 6.90227C11.0415 6.34582 10.287 6.03292 9.5001 6.03197L9.50006 6.03192ZM9.50006 10.5683C9.08424 10.5683 8.68521 10.403 8.39125 10.1089C8.09712 9.81495 7.93188 9.41594 7.93188 9.00009C7.93188 8.58424 8.09712 8.18524 8.39125 7.89129C8.6852 7.59715 9.0842 7.43192 9.50006 7.43192C9.9159 7.43192 10.3149 7.59715 10.6089 7.89129C10.903 8.18524 11.0682 8.58424 11.0682 9.00009C11.0678 9.41591 10.9024 9.81454 10.6085 10.1085C10.3145 10.4024 9.91587 10.5679 9.50007 10.5683L9.50006 10.5683Z" fill="black"/>
</svg>
